<?xml version="1.0" encoding="UTF-8"?>
<svg xmlns="http://www.w3.org/2000/svg" version="1.1" viewBox="0 0 1071 201">
  <defs>
    <style>
      .st0 {
        fill: #0e183b;
      }

      .st1 {
        isolation: isolate;
      }

      .st2 {
        fill: #004bff;
      }
    </style>
  </defs>
  <!-- Generator: Adobe Illustrator 29.1.0, SVG Export Plug-In . SVG Version: 2.0.0 Build 28)  -->
  <g>
    <g id="Layer_1">
      <g id="Layer_11" data-name="Layer_1">
        <g>
          <path class="st2" d="M78.1,120l13.9-13.8-2.6-2.6c-5-4.9-7.7-11.5-7.7-18.5s2.8-13.6,7.7-18.5c4.9-5,11.5-7.7,18.5-7.7s13.6,2.8,18.5,7.7l2.6,2.6,13.9-13.9-2.6-2.6c-8.7-8.6-20.2-13.4-32.4-13.4s-23.7,4.8-32.4,13.4c-17.8,17.8-17.8,46.9,0,64.7l2.6,2.6h0Z"/>
          <path class="st2" d="M17,47.3c-21.4,31.9-22.6,73.4-3.6,106.4l19.1-11c-15.1-26.3-13.9-59.3,3.6-84.4,0,0-19.1-11-19.1-11Z"/>
          <path class="st2" d="M119.5,83.5l-2.6-2.6-13.9,13.9,2.6,2.6c5,4.9,7.7,11.5,7.7,18.5s-2.8,13.6-7.7,18.5c-4.9,5-11.5,7.7-18.5,7.7s-13.6-2.8-18.5-7.7l-2.6-2.6-13.9,13.9,2.6,2.6c8.7,8.6,20.2,13.4,32.4,13.4s23.7-4.8,32.4-13.5c17.8-17.8,17.8-46.9,0-64.7h0Z"/>
          <path class="st2" d="M108,0v22.1c39.9,3.9,71.1,37.6,71.1,78.4s-31.3,74.6-71.1,78.4v22.1c52.1-3.9,93.1-47.4,93.1-100.5S160.1,3.9,108,0Z"/>
        </g>
        <path class="st0" d="M387.5,60.2h15.7v49.1c0,18.4-12.4,32.8-38.5,32.8s-38.7-14-38.7-32.8v-49.1h15.7v48.2c0,12.6,9,20.5,23,20.5s22.8-7.8,22.8-20.5v-48.2ZM477,110.1l18.6,30.7h-17.2l-17-29.7h-26.3v29.7h-15.7V60.2h48.8c14.7,0,28.9,8.9,28.9,25.6s-9,21.8-20.1,24.2h0ZM481.5,85.9c0-6.4-4.7-12.3-13.5-12.3h-32.9v24.8h33c8.8,0,13.4-5.6,13.4-12.4h0ZM511.9,140.8h66.8v-12.7h-50.3v-23.2h50.3v-11.9h-50.3v-20h50.3v-12.8h-66.8v80.5h0ZM635.2,58.9c-27.9,0-46.2,15.3-46.2,41.6s18.2,41.5,46.2,41.5,42.2-14.6,44.1-35.1v-.2h-16c-1.8,12.1-12.1,21.8-28.2,21.8-18.5.1-30.4-10.6-30.4-27.9s11.4-28.2,30.4-28.1c17.1,0,27,10.5,28.2,22.1v.2h16.1v-.3c-1.8-20.9-18.9-35.5-44.2-35.5h0ZM708.3,60.2h-15.7v80.5h66.6v-12.7h-50.8V60.2h0ZM854.7,100.6c0,26.4-17.6,41.5-46,41.5s-45.9-15.1-45.9-41.5,19.1-41.7,45.9-41.7,46,14.5,46,41.7ZM838.9,100.5c0-18.5-12.2-28.3-30.1-28.3s-30,9.7-30,28.3,12.1,28,30,28,30.1-9.9,30.1-28ZM926.9,108.4c0,12.6-8.7,20.5-22.8,20.5s-23-7.8-23-20.5v-48.2h-15.7v49.1c0,18.8,11.9,32.8,38.7,32.8s38.5-14.4,38.5-32.8v-49.1h-15.7v48.2ZM1039.2,100.2c0,23.4-17.2,40.6-41.6,40.6h-38.9V60.2h38.9c24.4,0,41.6,16.5,41.6,39.9h0ZM1024.1,99.7c0-15.2-10.7-26.3-27.1-26.3h-22.5v53.1h22.5c16.5,0,27.1-12,27.1-26.8ZM278.1,93.2c-7.9-2.4-18.6-5.3-18.6-12.6s7.3-9.2,17.7-9.2,18.1,3.3,18.3,12.9h17.5v-.5c-.3-17.3-15.3-24.5-35.4-24.5s-35,6.5-35,22.1c0,28.2,53.1,21,54.1,37.3.4,7.6-8,10.9-19.1,10.7-10.8-.2-19.7-4.1-19.8-14.5h-18.4v.4c.3,18.1,16,26.7,37.4,26.7s36.4-8.7,36.6-23.2c.2-16.6-16.8-20.7-35.3-25.4v-.2Z"/>
      </g>
      <g class="st1">
        <g class="st1">
          <path class="st0" d="M1038,56c0-10.3,7.3-16,16.6-16s16.4,5.7,16.4,16-7.1,15.8-16.4,15.8-16.6-5.8-16.6-15.8ZM1054.5,68.7c7.6,0,13.3-4.4,13.3-12.7s-5.7-12.9-13.3-12.9-13.4,4.1-13.4,12.9,5.8,12.7,13.4,12.7ZM1047.8,47.8h8.8c3,0,5.8,2,5.8,5.2s-1.8,4.4-3.8,5l3.5,5.9h-3.2l-3.4-5.7h-4.8v5.7h-2.9v-16.2h0ZM1056.5,55.5c2.1,0,3-1,3-2.5s-.9-2.6-3-2.6h-5.8v5h5.8Z"/>
        </g>
      </g>
    </g>
  </g>
</svg>