<?xml version="1.0" encoding="utf-8"?>
<!-- Generator: Adobe Illustrator 26.2.0, SVG Export Plug-In . SVG Version: 6.00 Build 0)  -->
<svg version="1.1" id="Layer_1" xmlns="http://www.w3.org/2000/svg" xmlns:xlink="http://www.w3.org/1999/xlink" x="0px" y="0px"
	 viewBox="0 0 198.8 50.8" style="enable-background:new 0 0 198.8 50.8;" xml:space="preserve">
<style type="text/css">
	.st0{fill:none;stroke:#1D1D1B;stroke-width:0.3083;stroke-miterlimit:10;}
	.st1{fill:#FFFFFF;stroke:#FFFFFF;stroke-width:0.45;stroke-miterlimit:10;}
	.st2{fill:#FFFFFF;stroke:#1D1D1B;stroke-width:0.25;stroke-linecap:round;stroke-linejoin:round;stroke-miterlimit:10;}
	.st3{fill:none;}
	.st4{fill:#FFFFFF;}
</style>
<g>
	<path class="st0" d="M59.4,25.4"/>
	<g>
		<path class="st1" d="M8.2,19.1v12.1H7.5V19.1H4.7v-0.7h6.4v0.7H8.2z"/>
		<path class="st1" d="M20.6,31.2l-1.5-3.9h-5.9l-1.5,3.9H11l5.1-13.3l5.2,13.3H20.6z M16.2,19.8l-2.6,6.8h5.3L16.2,19.8z"/>
		<path class="st1" d="M37.8,31.2l-2.7-10.8l-4.2,11.2l-4.2-11.2l-2.8,10.8h-0.7L26.5,18l4.4,11.5l4.4-11.5l3.4,13.3H37.8z"/>
		<path class="st1" d="M49.9,31.2l-1.5-3.9h-5.9l-1.5,3.9h-0.7l5.1-13.3l5.2,13.3H49.9z M45.5,19.8l-2.6,6.8h5.3L45.5,19.8z"/>
		<path class="st1" d="M58.8,31.2l-4.1-6.4h-1.4v6.4h-0.7V18.3h3c0.5,0,0.9,0.1,1.4,0.2c0.4,0.1,0.8,0.3,1.1,0.6
			c0.3,0.3,0.6,0.6,0.7,1c0.2,0.4,0.3,0.9,0.3,1.4c0,0.6-0.1,1.1-0.3,1.5c-0.2,0.4-0.4,0.7-0.7,1c-0.3,0.3-0.7,0.5-1.1,0.6
			c-0.4,0.1-0.9,0.2-1.4,0.2l4.1,6.4H58.8z M58.1,20.4c-0.1-0.3-0.3-0.6-0.6-0.8c-0.3-0.2-0.5-0.3-0.9-0.5c-0.3-0.1-0.7-0.2-1.1-0.2
			h-2.2v5h2.4c0.8,0,1.4-0.2,1.9-0.6c0.5-0.4,0.7-1.1,0.7-1.9C58.4,21.1,58.3,20.7,58.1,20.4z"/>
		<path class="st1" d="M70.9,31.2l-1.5-3.9h-5.9l-1.5,3.9h-0.7l5.1-13.3l5.2,13.3H70.9z M66.5,19.8l-2.6,6.8h5.3L66.5,19.8z"/>
		<path class="st1" d="M128.8,31.2V18.3h0.7v12.1h3.6v0.7H128.8z"/>
		<path class="st1" d="M144.6,29.5c-1.2,1.2-2.8,1.9-4.8,1.9c-1.9,0-3.5-0.6-4.8-1.8c-1.2-1.2-1.9-2.8-1.9-4.8
			c0-1.9,0.6-3.5,1.8-4.8c1.2-1.2,2.8-1.9,4.8-1.9c1.9,0,3.5,0.6,4.8,1.8c1.2,1.2,1.9,2.8,1.9,4.8C146.4,26.7,145.8,28.3,144.6,29.5
			z M144,20.5c-1.1-1.1-2.5-1.7-4.3-1.7c-1.7,0-3.1,0.6-4.2,1.7c-1.1,1.1-1.7,2.5-1.7,4.2c0,1.7,0.5,3.1,1.6,4.2
			c1.1,1.1,2.5,1.7,4.2,1.7c1.7,0,3.2-0.5,4.3-1.6c1.1-1.1,1.6-2.5,1.6-4.3C145.7,23,145.1,21.6,144,20.5z"/>
		<path class="st1" d="M155.6,30.5c-0.7,0.6-1.5,0.8-2.6,0.8c-1,0-1.9-0.3-2.6-0.8c-0.7-0.6-1.1-1.4-1.1-2.5v-9.7h0.7V28
			c0,0.8,0.3,1.5,0.9,1.9c0.6,0.4,1.3,0.6,2.1,0.6c0.8,0,1.5-0.2,2.1-0.7c0.6-0.5,0.9-1.1,0.9-1.9v-9.7h0.7V28
			C156.8,29.1,156.4,29.9,155.6,30.5z"/>
		<path class="st1" d="M159.8,20.3v10.9h-0.7v-13l9.6,11.3V18.3h0.7v13.1L159.8,20.3z"/>
		<path class="st1" d="M183.9,29.4c-1.2,1.3-2.9,2-4.9,2c-1.9,0-3.5-0.6-4.8-1.8c-1.2-1.2-1.9-2.8-1.9-4.8c0-1.9,0.6-3.5,1.9-4.7
			c1.3-1.3,2.8-1.9,4.8-1.9c2.3,0,4.1,0.9,5.5,2.7l-0.6,0.5c-1.2-1.6-2.8-2.4-4.9-2.4c-1.7,0-3.1,0.6-4.2,1.7
			c-1.1,1.1-1.7,2.5-1.7,4.2c0,1.7,0.6,3.1,1.7,4.2c1.1,1.1,2.5,1.7,4.2,1.7c1.8,0,3.3-0.6,4.4-1.8c0.8-0.9,1.3-1.9,1.4-3.1h-4.3V25
			h5.1C185.6,26.8,185,28.2,183.9,29.4z"/>
		<path class="st1" d="M188,31.2V18.3h6.2v0.7h-5.5v4.7h5.5v0.8h-5.5v5.9h5.5v0.7H188z"/>
	</g>
	<path class="st2" d="M94,28.7"/>
	<path class="st3" d="M97.1,27.4c0.1-0.1,0.2-0.2,0.3-0.3c0,0,0.1-0.1,0.1-0.1c0,0,0,0,0-0.1l-0.2,0.3
		C97.2,27.3,97.2,27.4,97.1,27.4z"/>
	<path class="st3" d="M97.1,21.7c0.1,0.1,0.1,0.1,0.2,0.2c0.1,0.1,0.2,0.2,0.2,0.3c0,0,0,0,0.1-0.1c-0.1-0.1-0.2-0.2-0.3-0.2
		C97.3,21.8,97.2,21.8,97.1,21.7z"/>
	<path class="st4" d="M102.9,21.5c0.5-0.5,1.2-1,1.2-1.9c0.1-0.7-0.2-1.5-0.7-2.1c0,0,0,0.1-0.1,0.1c-0.3,0.4-0.6,0.8-1.3,0.8
		c0,0-0.1,0-0.1,0c0,0,0,0,0-0.1c0.1-0.3,0.2-0.5,0.4-0.6c0.2-0.1,0.3-0.2,0.3-0.5c0-0.6-0.6-1.3-1.1-1.8l-0.1-0.1
		c-0.3-0.3-0.6-0.6-0.8-0.9c-0.3-0.3-0.5-0.5-0.7-0.7c-0.2,0.2-0.4,0.4-0.7,0.7c-0.3,0.3-0.6,0.6-0.8,0.9l-0.1,0.1
		c-0.5,0.6-1.2,1.3-1.1,1.8c0,0.3,0.1,0.4,0.3,0.5c0.1,0.1,0.3,0.3,0.4,0.6c0,0,0,0.1,0,0.1c0,0,0,0-0.1,0c-0.7,0-1-0.4-1.3-0.8
		c0,0,0-0.1-0.1-0.1c-0.5,0.6-0.7,1.3-0.7,2.1c0.1,0.9,0.9,1.6,1.6,2.2c0.1,0.1,0.2,0.2,0.3,0.3c0.6-0.5,1.4-0.9,2.3-0.9
		c0.9,0,1.6,0.3,2.2,0.8l0.3-0.3C102.7,21.7,102.8,21.6,102.9,21.5z"/>
	<path class="st3" d="M97.1,21.7c0.1,0.1,0.2,0.1,0.2,0.2c0.1,0.1,0.2,0.2,0.3,0.2c0,0,0.1-0.1,0.1-0.1c-0.1-0.1-0.2-0.2-0.3-0.3
		c-0.6-0.5-1.5-1.3-1.6-2.2c-0.1-0.7,0.2-1.5,0.7-2.1c0,0,0,0.1,0.1,0.1c0.3,0.4,0.6,0.8,1.3,0.8c0,0,0,0,0.1,0c0,0,0,0,0-0.1
		c-0.1-0.3-0.2-0.5-0.4-0.6c-0.2-0.1-0.3-0.2-0.3-0.5c0-0.6,0.6-1.3,1.1-1.8l0.1-0.1c0.3-0.3,0.6-0.6,0.8-0.9
		c0.3-0.3,0.5-0.5,0.7-0.7c0.2,0.2,0.4,0.4,0.7,0.7c0.3,0.3,0.6,0.6,0.8,0.9l0.1,0.1c0.5,0.6,1.2,1.3,1.1,1.8c0,0.3-0.1,0.4-0.3,0.5
		c-0.1,0.1-0.3,0.3-0.4,0.6c0,0,0,0.1,0,0.1c0,0,0,0,0.1,0c0.7,0,1-0.4,1.3-0.8c0,0,0-0.1,0.1-0.1c0.5,0.6,0.7,1.3,0.7,2.1
		c-0.1,0.9-0.7,1.4-1.2,1.9c-0.1,0.1-0.2,0.2-0.3,0.3l-0.3,0.3c0,0,0.1,0.1,0.1,0.1l0.3-0.2c0.1-0.1,0.2-0.2,0.3-0.3
		c0.5-0.5,1.2-1,1.3-2c0.1-0.8-0.2-1.7-0.8-2.3c0,0,0,0-0.1,0c0,0,0,0-0.1,0c0,0.1-0.1,0.1-0.1,0.2c-0.3,0.3-0.5,0.7-1,0.7
		c0.1-0.2,0.2-0.3,0.3-0.4c0.2-0.1,0.3-0.3,0.3-0.7c0-0.6-0.7-1.4-1.2-2l-0.1-0.1c-0.3-0.3-0.6-0.6-0.8-0.9
		c-0.3-0.3-0.5-0.5-0.7-0.8c0,0,0,0-0.1,0c0,0,0,0-0.1,0c-0.2,0.2-0.4,0.5-0.7,0.8c-0.3,0.3-0.6,0.6-0.8,0.9l-0.1,0.1
		c-0.5,0.6-1.2,1.3-1.2,2c0,0.4,0.2,0.5,0.3,0.7c0.1,0.1,0.2,0.2,0.3,0.4c-0.5,0-0.8-0.4-1-0.7c0-0.1-0.1-0.1-0.1-0.2c0,0,0,0-0.1,0
		c0,0,0,0-0.1,0c-0.5,0.6-0.8,1.5-0.8,2.3c0,0.5,0.3,0.9,0.6,1.3C96.7,21.2,96.9,21.5,97.1,21.7z"/>
	<path class="st4" d="M91,26.4c-0.1-0.1-0.2-0.2-0.3-0.3l-0.1-0.1c-0.3-0.3-0.6-0.6-0.9-0.8c-0.3-0.3-0.5-0.5-0.7-0.7
		c0.2-0.2,0.4-0.4,0.7-0.7c0.2-0.2,0.5-0.5,0.7-0.7l0.5-0.4c0.5-0.5,1.1-1,1.6-1l0,0c0.3,0,0.4,0.1,0.5,0.3c0.1,0.1,0.3,0.3,0.6,0.4
		c0,0,0.1,0,0.1,0c0,0,0,0,0-0.1c0-0.7-0.4-1-0.8-1.3c0,0-0.1,0-0.1-0.1c0.6-0.5,1.3-0.7,2.1-0.7c0.9,0.1,1.7,1,2.2,1.6
		c0.1,0.1,0.2,0.2,0.2,0.3l0,0c-0.5,0.6-0.9,1.4-0.9,2.3c0,0.9,0.3,1.6,0.8,2.2l-0.2,0.3c-0.1,0.1-0.2,0.2-0.3,0.3
		c-0.5,0.5-1,1.2-1.9,1.2c-0.7,0.1-1.5-0.2-2.1-0.7c0,0,0.1,0,0.1-0.1c0.4-0.3,0.8-0.6,0.8-1.3c0,0,0,0,0-0.1c0,0,0,0-0.1,0
		c-0.3,0.1-0.5,0.2-0.6,0.4c-0.1,0.2-0.2,0.3-0.5,0.3l0,0c-0.3,0-0.6-0.2-0.9-0.4"/>
	<path class="st4" d="M90.5,22.9c0.1-0.1,0.2-0.2,0.3-0.3c-0.4-4.7,0.8-7.3,0.8-7.3c5.3-0.3,8.4-2.9,8.4-2.9s3.1,2.6,8.4,2.9
		c0,0,1.2,2.7,0.8,7.3c0.1,0.1,0.2,0.2,0.3,0.3l0.1,0.1c0,0,0.1,0.1,0.1,0.1c0.6-5.3-0.8-8.3-0.8-8.3c-5.6-0.3-8.9-3-8.9-3
		s-3.3,2.7-8.9,3c0,0-1.3,3-0.8,8.3C90.4,23,90.4,23,90.5,22.9L90.5,22.9z"/>
	<path class="st4" d="M91,26.4c0.2,0.2,0.4,0.3,0.6,0.5"/>
	<path class="st4" d="M90.8,22.8c-0.1,0.1-0.1,0.1-0.2,0.2l-0.1,0.1c-0.1,0.1-0.1,0.1-0.2,0.2"/>
	<path class="st4" d="M91.4,28.1c0.1,0.3,1.4,6.1,8.6,10.9h0c7.3-4.7,8.6-10.6,8.6-10.9c0.1-0.5,0.3-1,0.4-1.4
		c-0.2,0.2-0.4,0.4-0.7,0.5c-0.1,0.3-0.1,0.6-0.2,0.9c-0.1,0.3-1.3,5.9-8.2,10.4h0c-6.9-4.5-8.1-10.1-8.2-10.4
		c-0.1-0.3-0.2-0.6-0.2-0.9c-0.2-0.1-0.4-0.3-0.6-0.5C91.1,27.2,91.3,27.6,91.4,28.1z"/>
	<path class="st4" d="M110.4,23.9c-0.3-0.3-0.6-0.6-0.9-0.8l-0.1-0.1c-0.6-0.5-1.3-1.2-1.8-1.2l0,0c-0.3,0-0.4,0.1-0.5,0.3
		c-0.1,0.1-0.3,0.3-0.6,0.4c0,0-0.1,0-0.1,0c0,0,0,0,0-0.1c0-0.7,0.4-1,0.8-1.3c0,0,0.1,0,0.1-0.1c-0.5-0.5-1.3-0.7-2.1-0.7
		c-0.9,0.1-1.7,1-2.2,1.6c-0.1,0.1-0.2,0.2-0.2,0.3c0.5,0.6,0.9,1.4,0.9,2.3c0,0.8-0.3,1.6-0.8,2.2l0,0c0.1,0.1,0.2,0.2,0.3,0.3
		c0.5,0.6,1.2,1.4,2.1,1.5c0.7,0.1,1.5-0.2,2.1-0.7c0,0-0.1,0-0.1-0.1c-0.4-0.3-0.8-0.6-0.8-1.3c0,0,0,0,0-0.1c0,0,0,0,0.1,0
		c0.3,0.1,0.5,0.2,0.6,0.4c0.1,0.2,0.2,0.3,0.5,0.3l0,0c0.6,0,1.3-0.6,1.8-1.1l0.1-0.1c0.3-0.3,0.6-0.6,0.9-0.8
		c0.3-0.3,0.5-0.5,0.7-0.7C110.9,24.4,110.6,24.2,110.4,23.9z"/>
	<path class="st3" d="M97.1,27.4c0.1-0.1,0.1-0.1,0.2-0.2l0.2-0.3c0,0-0.1-0.1-0.1-0.1l-0.2,0.3c-0.1,0.1-0.2,0.2-0.3,0.3
		c-0.5,0.5-1,1.2-1.9,1.2c-0.7,0.1-1.5-0.2-2.1-0.7c0,0,0.1,0,0.1-0.1c0.4-0.3,0.8-0.6,0.8-1.3c0,0,0,0,0-0.1c0,0,0,0-0.1,0
		c-0.3,0.1-0.5,0.2-0.6,0.4c-0.1,0.2-0.2,0.3-0.5,0.3l0,0c-0.3,0-0.6-0.2-0.9-0.4c-0.2-0.1-0.4-0.3-0.6-0.5
		c-0.1-0.1-0.2-0.2-0.3-0.3l-0.1-0.1c-0.3-0.3-0.6-0.6-0.9-0.8c-0.3-0.3-0.5-0.5-0.7-0.7c0.2-0.2,0.4-0.4,0.7-0.7
		c0.2-0.2,0.5-0.5,0.7-0.7c0.1-0.1,0.1-0.1,0.2-0.2l0.1-0.1c0.1-0.1,0.1-0.1,0.2-0.2c0.5-0.5,1.1-1,1.6-1l0,0c0.3,0,0.4,0.1,0.5,0.3
		c0.1,0.1,0.3,0.3,0.6,0.4c0,0,0.1,0,0.1,0c0,0,0,0,0-0.1c0-0.7-0.4-1-0.8-1.3c0,0-0.1,0-0.1-0.1c0.6-0.5,1.3-0.7,2.1-0.7
		c0.9,0.1,1.7,1,2.2,1.6c0.1,0.1,0.2,0.2,0.2,0.3l0,0c0,0,0.1-0.1,0.1-0.1c-0.1-0.1-0.2-0.2-0.2-0.3c-0.1-0.1-0.1-0.1-0.2-0.2
		c-0.2-0.2-0.5-0.5-0.8-0.8c-0.4-0.3-0.9-0.6-1.4-0.7c-0.8-0.1-1.7,0.2-2.3,0.8c0,0,0,0,0,0.1c0,0,0,0,0,0.1c0.1,0,0.1,0.1,0.2,0.1
		c0.3,0.3,0.7,0.5,0.7,1c-0.2-0.1-0.3-0.2-0.4-0.3c-0.1-0.2-0.3-0.3-0.7-0.3l0,0c-0.5,0-1.1,0.5-1.6,0.9c-0.1,0.1-0.2,0.2-0.3,0.3
		l-0.1,0.1c0,0-0.1,0.1-0.1,0.1c-0.3,0.3-0.6,0.5-0.8,0.8c-0.3,0.3-0.5,0.5-0.8,0.7c0,0,0,0,0,0.1c0,0,0,0,0,0.1
		c0.2,0.2,0.5,0.4,0.8,0.7c0.3,0.3,0.6,0.6,0.9,0.9l0.1,0.1c0.2,0.1,0.3,0.3,0.5,0.4c0.2,0.2,0.4,0.3,0.6,0.5
		c0.3,0.2,0.6,0.3,0.8,0.3l0,0c0.4,0,0.5-0.2,0.7-0.3c0.1-0.1,0.2-0.2,0.4-0.3c0,0.5-0.4,0.8-0.7,1c-0.1,0-0.1,0.1-0.2,0.1
		c0,0,0,0,0,0.1c0,0,0,0,0,0.1c0.5,0.5,1.3,0.8,2,0.8c0.1,0,0.2,0,0.3,0c0.6,0,1-0.3,1.4-0.6C96.6,28,96.8,27.7,97.1,27.4z"/>
	<path class="st4" d="M95.9,29.6c-0.1,0.7,0.2,1.5,0.7,2.1c0,0,0-0.1,0.1-0.1c0.3-0.4,0.6-0.8,1.3-0.8c0,0,0.1,0,0.1,0
		c0,0,0,0,0,0.1c-0.1,0.3-0.2,0.5-0.4,0.6c-0.2,0.1-0.3,0.2-0.3,0.5c0,0.6,0.6,1.3,1.2,1.9l0.1,0.1c0.3,0.3,0.6,0.6,0.8,0.9
		c0.3,0.3,0.5,0.5,0.7,0.7c0.2-0.2,0.4-0.4,0.7-0.7c0.3-0.3,0.6-0.6,0.8-0.9l0.1-0.1c0.5-0.6,1.2-1.3,1.2-1.9c0-0.3-0.1-0.4-0.3-0.5
		c-0.1-0.1-0.3-0.3-0.4-0.6c0,0,0-0.1,0-0.1c0,0,0,0,0.1,0c0.7,0,1,0.4,1.3,0.8c0,0,0,0.1,0.1,0.1c0.5-0.6,0.7-1.3,0.7-2.1
		c-0.1-0.9-0.7-1.4-1.2-1.9c-0.1-0.1-0.2-0.2-0.3-0.3l-0.2-0.2l0,0c-0.6,0.5-1.4,0.9-2.3,0.9c-0.9,0-1.8-0.4-2.4-1
		c0,0-0.1,0.1-0.1,0.1C96.9,27.9,96,28.7,95.9,29.6z"/>
	<path class="st3" d="M102.4,27.3l0.2,0.2c0.1,0.1,0.2,0.2,0.3,0.3c0.5,0.5,1.2,1,1.2,1.9c0.1,0.7-0.2,1.5-0.7,2.1
		c0,0,0-0.1-0.1-0.1c-0.3-0.4-0.6-0.8-1.3-0.8c0,0,0,0-0.1,0c0,0,0,0,0,0.1c0.1,0.3,0.2,0.5,0.4,0.6c0.2,0.1,0.3,0.2,0.3,0.5
		c0,0.6-0.6,1.3-1.2,1.9l-0.1,0.1c-0.3,0.3-0.6,0.6-0.8,0.9c-0.3,0.3-0.5,0.5-0.7,0.7c-0.2-0.2-0.4-0.4-0.7-0.7
		c-0.3-0.3-0.6-0.6-0.8-0.9l-0.1-0.1c-0.5-0.6-1.2-1.3-1.2-1.9c0-0.3,0.1-0.4,0.3-0.5c0.1-0.1,0.3-0.3,0.4-0.6c0,0,0-0.1,0-0.1
		c0,0,0,0-0.1,0c-0.7,0-1,0.4-1.3,0.8c0,0,0,0.1-0.1,0.1c-0.5-0.6-0.7-1.3-0.7-2.1c0.1-0.9,1-1.8,1.6-2.3c0,0,0.1-0.1,0.1-0.1
		c0,0-0.1-0.1-0.1-0.1c0,0-0.1,0.1-0.1,0.1c-0.1,0.1-0.2,0.2-0.3,0.3c-0.3,0.2-0.5,0.5-0.8,0.8c-0.3,0.4-0.6,0.8-0.6,1.3
		c-0.1,0.8,0.2,1.7,0.8,2.3c0,0,0,0,0.1,0c0,0,0,0,0.1,0c0-0.1,0.1-0.1,0.1-0.2c0.3-0.3,0.5-0.7,1-0.7c-0.1,0.2-0.2,0.3-0.3,0.4
		c-0.2,0.1-0.3,0.3-0.3,0.7c0,0.6,0.7,1.4,1.2,2l0.1,0.1c0.3,0.3,0.6,0.6,0.8,0.9c0.3,0.3,0.5,0.6,0.7,0.8c0,0,0,0,0.1,0
		c0,0,0,0,0.1,0c0.2-0.2,0.4-0.5,0.7-0.8c0.3-0.3,0.6-0.6,0.9-0.9l0.1-0.1c0.5-0.6,1.2-1.3,1.2-2c0-0.4-0.2-0.5-0.3-0.7
		c-0.1-0.1-0.2-0.2-0.3-0.4c0.5,0,0.8,0.4,1,0.7c0,0.1,0.1,0.1,0.1,0.2c0,0,0,0,0.1,0c0,0,0,0,0.1,0c0.5-0.6,0.8-1.5,0.8-2.3
		c-0.1-1-0.8-1.6-1.3-2c-0.1-0.1-0.2-0.2-0.3-0.3l-0.2-0.2C102.4,27.2,102.4,27.2,102.4,27.3L102.4,27.3z"/>
	<path class="st3" d="M102.6,22.4c-0.1-0.1-0.1-0.2-0.2-0.2c0,0-0.1-0.1-0.1-0.1c-0.6-0.5-1.4-0.8-2.2-0.8c-0.9,0-1.7,0.3-2.3,0.9
		c0,0-0.1,0.1-0.1,0.1c0,0,0,0-0.1,0.1c0,0-0.1,0.1-0.1,0.1c-0.5,0.6-0.9,1.4-0.9,2.3c0,0.9,0.3,1.6,0.8,2.2c0,0,0.1,0.1,0.1,0.1
		c0,0,0,0,0,0.1c0,0,0.1,0.1,0.1,0.1c0.6,0.6,1.5,1,2.4,1c0.9,0,1.7-0.3,2.3-0.9c0,0,0.1-0.1,0.2-0.1c0.1-0.1,0.2-0.2,0.2-0.3
		c0.5-0.6,0.8-1.4,0.8-2.2C103.5,23.8,103.2,23,102.6,22.4z M100,27.8c-1.7,0-3.1-1.4-3.1-3.1c0-1.7,1.4-3.1,3.1-3.1
		c1.7,0,3.1,1.4,3.1,3.1C103.1,26.4,101.7,27.8,100,27.8z"/>
	<path class="st4" d="M100,21.5c-1.7,0-3.1,1.4-3.1,3.1c0,1.7,1.4,3.1,3.1,3.1c1.7,0,3.1-1.4,3.1-3.1
		C103.1,22.9,101.7,21.5,100,21.5z"/>
	<path class="st3" d="M109.2,35c2.4-3.3,3.2-5.9,3.2-6.1c3.2-10.5,0.1-16.6-0.4-17.4c-6.9-0.3-11.4-3.5-12.1-4
		c-0.7,0.5-5.1,3.6-12,4c-0.4,0.7-3.5,6.8-0.4,17.4c0.1,0.2,0.9,2.9,3.5,6.4c0.9,0.8,1.9,1.5,3.3,1.8c-0.5,0.1-1,0.2-1.5,0.3
		c0.2,0.2,0.4,0.4,0.6,0.6c0.3-0.1,0.6-0.2,0.9-0.3l0.9,1.2c-0.2,0.1-0.4,0.3-0.6,0.4c1.5,1.4,3.2,2.8,5.3,4.2
		c2.1-1.3,3.8-2.7,5.3-4.1c-0.2-0.1-0.4-0.3-0.6-0.4l1.6-1c0.1,0,0.2,0.1,0.2,0.1c0.2-0.2,0.4-0.4,0.6-0.6c-0.6-0.1-1.1-0.3-1.6-0.4
		C107.1,36.8,108.2,35.9,109.2,35z"/>
	<path class="st4" d="M116.4,12.2c-0.5-2.9-2.3-4.6-5-5.4C113,8.7,114.2,10.9,116.4,12.2z"/>
	<path class="st4" d="M117.9,14.9c-1-2-3.3-2.7-4.5-4.4c0.5,3.2,3.6,3.8,5,6.1c0.3-3.7-0.2-7.1-2.9-7.6
		C117.1,10.1,116.9,13,117.9,14.9z"/>
	<path class="st4" d="M116.6,18.5c-0.3,3.2,1.8,5.4,1.4,8.8c0.6-0.3,2.6-2.7,3.3-4.7c0.7-2.2-0.2-4.9-0.2-5.2c0,3.8-1.7,4.6-2.1,7.6
		C119.2,23.3,117.1,20.1,116.6,18.5z"/>
	<path class="st4" d="M116.6,30.6c1.4-1.9,0.5-4.5,0.4-7.1c-1.3,2.3-0.5,6.9-1.9,9.1c2.6-1.7,4.5-2.5,6-5.7c0.5-1,0.7-2.1,0.5-2.5
		C120.2,26.8,118,28.4,116.6,30.6z"/>
	<path class="st4" d="M105.6,39.6c0.8,0.4,1.6,0.8,2.6,0.9c2.2,0.2,3.8-0.7,5-1.9c-2.3,1.2-4.2,0.5-6.3-0.3
		C106.5,38.8,106.1,39.2,105.6,39.6z"/>
	<path class="st4" d="M104.8,39.1c0.2,0.1,0.4,0.3,0.6,0.4c0.4-0.4,0.9-0.8,1.2-1.3c-0.1,0-0.2-0.1-0.2-0.1L104.8,39.1z"/>
	<path class="st4" d="M119,19.3c0.1-1.5-3.5-4.8-3.7-4.7c0.7,3,3,4.4,4,7.1c0.2-1.9,1.4-3.7,1.2-6c-0.1-1.6-0.8-3.1-1.8-3.9
		C119.9,15.6,119.2,16.8,119,19.3z"/>
	<path class="st4" d="M115.4,33.1c-1.1,0.6-1.9,1.4-2.9,1.9c2-1.3,2.3-4.7,2.7-7.2c-2.1,2.1-2.3,6.1-4.3,8.3
		c4.5-0.6,8.3-2.5,9.1-6.4C119.1,31.4,117.2,32.1,115.4,33.1z"/>
	<path class="st4" d="M105.6,37.2c0.5,0.1,1.1,0.2,1.6,0.4c0.8-0.9,1.5-1.7,2.1-2.6C108.2,35.9,107.1,36.8,105.6,37.2z"/>
	<path class="st4" d="M112.2,32.2c-0.7,0.5-1.2,1-1.8,1.6c-0.6,1-1.4,2-2.3,3.1C110.6,36.4,111.5,34,112.2,32.2z"/>
	<path class="st4" d="M112,36.6c-1.4,0.1-2.8,0.4-3.8,0.3c-0.2,0.2-0.4,0.5-0.6,0.7c1.5,0.4,3,0.7,4.5,0.5c2.2-0.3,3.9-1.7,4.7-3.3
		C115.9,36.1,113.9,36.4,112,36.6z"/>
	<path class="st4" d="M93.2,38.3c-2.1,0.8-4.1,1.6-6.4,0.3c1.2,1.2,2.8,2.2,5,1.9c1-0.1,1.9-0.5,2.6-1C94,39.1,93.6,38.7,93.2,38.3z
		"/>
	<path class="st4" d="M94.5,37.8c-0.3,0.1-0.6,0.2-0.9,0.3c0.4,0.4,0.8,0.8,1.2,1.2c0.2-0.1,0.4-0.3,0.6-0.4L94.5,37.8z"/>
	<path class="st4" d="M91.2,35.3c0.5,0.7,1.1,1.4,1.8,2.2c0.5-0.1,1-0.2,1.5-0.3C93.1,36.8,92.1,36.1,91.2,35.3z"/>
	<path class="st4" d="M87.8,32.2c0.8,1.8,1.7,4.4,4.2,4.7c-1.1,0.1-2.5-0.2-4-0.4c-1.9-0.2-3.9-0.5-4.7-1.7c0.8,1.5,2.4,3,4.7,3.3
		c1.5,0.2,3.1-0.2,4.6-0.5c-1.1-1.2-1.9-2.4-2.7-3.5C89.3,33.5,88.6,32.8,87.8,32.2z"/>
	<path class="st4" d="M88.7,6.9c-2.7,0.8-4.5,2.4-5,5.4C85.8,10.9,87.1,8.7,88.7,6.9z"/>
	<path class="st4" d="M86.6,10.5c-1.2,1.7-3.5,2.4-4.5,4.4c0.9-1.8,0.8-4.7,2.4-5.9c-2.7,0.4-3.2,3.8-2.9,7.6
		C83.1,14.3,86.2,13.7,86.6,10.5z"/>
	<path class="st4" d="M82,27.3c-0.4-3.4,1.7-5.5,1.4-8.8c-0.5,1.6-2.6,4.7-2.3,6.6c-0.4-3-2.2-3.8-2.1-7.6c0,0.3-0.9,3-0.2,5.2
		C79.3,24.7,81.4,27,82,27.3z"/>
	<path class="st4" d="M85.1,32.5c-1.5-2.2-0.6-6.7-1.9-9.1c-0.2,2.6-1,5.2,0.4,7.1c-1.5-2.2-3.6-3.8-4.9-6.2c-0.2,0.3,0,1.5,0.5,2.5
		C80.5,30,82.4,30.8,85.1,32.5z"/>
	<path class="st4" d="M84.7,14.6c-0.2-0.1-3.8,3.2-3.7,4.7c-0.2-2.4-0.9-3.7,0.3-7.4c-0.9,0.8-1.6,2.3-1.8,3.9c-0.2,2.3,1,4.1,1.2,6
		C81.7,19,84,17.6,84.7,14.6z"/>
	<path class="st4" d="M84.8,27.8c0.4,2.6,0.8,5.9,2.7,7.2c-1-0.5-1.8-1.3-2.9-1.9c-1.7-1-3.7-1.6-4.7-3.4c0.9,4,4.6,5.8,9.1,6.4
		C87.1,33.9,86.9,29.9,84.8,27.8z"/>
	<path class="st3" d="M100.1,9.6c0,0-4.1,3.2-10.9,3.5c-2.5,5.4,0.3,15.5,0.3,15.5c0.1,0.3,1.7,7.1,10.6,12.6h0
		c8.9-5.5,10.5-12.3,10.6-12.6c3-9.7,0.3-15.5,0.3-15.5C104.1,12.8,100.1,9.6,100.1,9.6z"/>
	<path class="st4" d="M112.1,11.5c-6.9-0.3-11.4-3.5-12.1-4c-0.7,0.5-5.1,3.6-12,4c-0.4,0.7-3.5,6.8-0.4,17.4
		c0.1,0.2,0.9,2.9,3.5,6.4c0.5,0.7,1.1,1.4,1.8,2.2c0.2,0.2,0.4,0.4,0.6,0.6c0.4,0.4,0.8,0.8,1.2,1.2c1.5,1.4,3.2,2.8,5.3,4.2
		c2.1-1.3,3.8-2.7,5.3-4.1c0.4-0.4,0.9-0.8,1.2-1.3c0.2-0.2,0.4-0.4,0.6-0.6c0.8-0.9,1.5-1.7,2.1-2.6c2.4-3.3,3.2-5.9,3.2-6.1
		C115.6,18.4,112.5,12.3,112.1,11.5z M110.7,28.6c-0.1,0.3-1.7,7.1-10.6,12.6h0C91.1,35.8,89.5,29,89.4,28.6c0,0-2.8-10.1-0.3-15.5
		c6.9-0.3,10.9-3.5,10.9-3.5s4.1,3.2,10.9,3.5C111,13.1,113.7,19,110.7,28.6z"/>
	<path class="st3" d="M112.4,11.3L112.4,11.3l-0.1-0.1c-7.5-0.3-12.1-4-12.1-4L100,7.1l-0.1,0.1c0,0-4.5,3.7-12,4l-0.1,0l0,0.1
		c0,0.1-3.8,6.3-0.4,17.7c0.1,0.2,0.7,2.3,2.6,5.1c0.7,1.1,1.6,2.2,2.7,3.5c0.2,0.2,0.4,0.4,0.6,0.7c0.4,0.4,0.8,0.9,1.3,1.3
		c1.5,1.5,3.3,2.9,5.5,4.3l0.1,0.1l0.1-0.1c2.2-1.4,4-2.8,5.5-4.3c0.5-0.4,0.9-0.9,1.3-1.3c0.2-0.2,0.4-0.5,0.6-0.7
		c0.2-0.2,0.4-0.5,0.6-0.7c0,0,0,0,0,0c0.9-1.1,1.7-2.1,2.3-3.1c1.7-2.7,2.3-4.6,2.3-4.8C116.2,17.6,112.4,11.4,112.4,11.3z
		 M109.2,35c-0.6,0.8-1.3,1.7-2.1,2.6c-0.2,0.2-0.4,0.4-0.6,0.6c-0.4,0.4-0.8,0.8-1.2,1.3c-1.5,1.4-3.2,2.8-5.3,4.1
		c-2.1-1.3-3.8-2.8-5.3-4.2c-0.4-0.4-0.8-0.8-1.2-1.2c-0.2-0.2-0.4-0.4-0.6-0.6c-0.7-0.7-1.3-1.5-1.8-2.2c-2.6-3.5-3.5-6.2-3.5-6.4
		c-3.2-10.5-0.1-16.6,0.4-17.4c6.9-0.3,11.2-3.4,12-4c0.7,0.5,5.2,3.6,12.1,4c0.4,0.7,3.5,6.8,0.4,17.4
		C112.4,29.1,111.6,31.7,109.2,35z"/>
</g>
</svg>
